<?xml version="1.0" encoding="utf-8"?>
<!-- Generator: Adobe Illustrator 18.1.1, SVG Export Plug-In . SVG Version: 6.00 Build 0)  -->
<svg version="1.1" id="Layer_1" xmlns="http://www.w3.org/2000/svg" xmlns:xlink="http://www.w3.org/1999/xlink" x="0px" y="0px"
	 viewBox="0 265.9 115 26.5" enable-background="new 0 265.9 115 26.5" xml:space="preserve">
<g>
	<g>
		<path fill="#FFFFFF" d="M15.2,276.9L15.2,276.9C15.2,276.8,15.2,276.8,15.2,276.9L15.2,276.9z"/>
		<path fill="#FFFFFF" d="M6.2,292H0.3v-17.6h5.8V292z M3.2,271.9L3.2,271.9c-2,0-3.2-1.4-3.2-3c0-1.7,1.4-3,3.3-3s3.2,1.4,3.2,3
			C6.6,270.6,5.3,271.9,3.2,271.9z M27.2,292h-5.8v-9.4c0-2.4-0.8-4-2.9-4c-1.6,0-2.6,1-3,2.2c-0.2,0.4-0.2,0.9-0.2,1.5v9.7H9.4
			c0,0,0.1-16,0-17.6h5.8v2.5c0.7-1.1,2.2-2.9,5.2-2.9c3.9,0,6.7,2.5,6.7,7.9V292H27.2z"/>
	</g>
	<path fill="#084356" d="M47.8,278.4c0.5-0.3,1-0.7,1.4-1.1c0.8-0.9,1.3-2.2,1.3-3.8c0-1.5-0.4-2.9-1.1-4c-1.3-1.8-3.5-2.8-6.6-2.8
		H30.8v25.4h11.1c1.3,0,2.4-0.3,3.4-0.5c1.1-0.2,2.1-0.7,2.9-1.4c0.7-0.5,1.4-1.3,1.8-2.1c0.7-1.1,1.1-2.6,1.1-4.1s-0.3-2.7-1-3.8
		C49.5,279.5,48.8,278.9,47.8,278.4z M36.2,281.3h5.5c0.9,0,1.8,0.1,2.3,0.3c0.9,0.4,1.4,1.1,1.4,2.3c0,1.4-0.4,2.1-1.4,2.6
		c-0.6,0.2-1.5,0.2-2.4,0.2h-5.4V281.3z M44,276c-0.6,0.4-1.4,0.7-2.4,0.7h-5.4v-4.6H41c1.1,0,2.1-0.1,2.7,0.2c0.7,0.3,1,0.9,1,1.9
		C44.8,275.2,44.5,275.7,44,276z"/>
	<polygon fill="#084356" points="76.1,277.6 76.1,273.1 61.6,273.1 61.6,277.7 69.4,277.7 61.6,287.7 61.6,292.2 77,292.2 77,287.7 
		68,287.7 	"/>
	<polygon fill="#084356" points="94.3,277.6 94.3,273.1 78.8,273.1 78.8,277.7 86.8,277.7 78.8,287.7 78.8,292.2 94.3,292.2 
		94.3,287.7 85.4,287.7 	"/>
	<path fill="#084356" d="M112.7,275.6c-1.6-2-4-2.9-7.2-2.9c-3.1,0-5.6,1-7.2,2.9c-1.6,2-2.3,4.3-2.3,6.9c0,2.7,0.8,5,2.3,7
		c1.6,2,4,2.9,7.2,2.9c3.1,0,5.6-0.9,7.2-2.9c1.6-1.9,2.3-4.3,2.3-7C115,279.9,114.3,277.6,112.7,275.6z M102.6,278.6
		c0.7-0.9,1.7-1.4,2.9-1.4s2.2,0.4,2.9,1.4c0.7,0.9,1,2.2,1,4c0,1.8-0.3,3-1,4c-0.6,0.9-1.6,1.4-2.9,1.4c-1.3,0-2.2-0.4-2.9-1.4
		c-0.7-0.9-1-2.2-1-4C101.6,280.8,102,279.5,102.6,278.6z"/>
	<rect x="53.1" y="274.3" fill="#084356" width="5.8" height="17.5"/>
	<path fill="#084356" d="M56,271.9L56,271.9c-2,0-3.2-1.4-3.2-3c0-1.8,1.4-3,3.3-3c2,0,3.2,1.4,3.2,3
		C59.3,270.6,58.1,271.9,56,271.9z"/>
</g>
</svg>
