<?xml version="1.0" encoding="utf-8"?>
<!-- Generator: Adobe Illustrator 18.1.1, SVG Export Plug-In . SVG Version: 6.00 Build 0)  -->
<svg version="1.1" id="Layer_1" xmlns="http://www.w3.org/2000/svg" xmlns:xlink="http://www.w3.org/1999/xlink" x="0px" y="0px"
	 viewBox="-467.2 273.6 16 15.3" enable-background="new -467.2 273.6 16 15.3" xml:space="preserve">
<g>
	<path fill="#084356" d="M-458.2,280L-458.2,280C-458.2,280-458.2,280-458.2,280C-458.2,280-458.2,280-458.2,280z"/>
	<path fill="#084356" d="M-463.5,288.8h-3.4v-10.3h3.4L-463.5,288.8L-463.5,288.8z M-465.3,277.1L-465.3,277.1
		c-1.2,0-1.9-0.8-1.9-1.8c0-1,0.8-1.8,1.9-1.8c1.2,0,1.9,0.8,1.9,1.8C-463.3,276.3-464.1,277.1-465.3,277.1z M-451.2,288.8h-3.4
		v-5.5c0-1.4-0.5-2.3-1.7-2.3c-0.9,0-1.5,0.6-1.8,1.3c-0.1,0.2-0.1,0.5-0.1,0.8v5.8h-3.4c0,0,0-9.4,0-10.3h3.4v1.5
		c0.5-0.7,1.3-1.7,3.1-1.7c2.3,0,3.9,1.5,3.9,4.6V288.8z"/>
</g>
</svg>
