<?xml version="1.0" encoding="utf-8"?>
<!-- Generator: Adobe Illustrator 18.1.1, SVG Export Plug-In . SVG Version: 6.00 Build 0)  -->
<svg version="1.1" id="Layer_1" xmlns="http://www.w3.org/2000/svg" xmlns:xlink="http://www.w3.org/1999/xlink" x="0px" y="0px"
	 viewBox="0 0 185.5 185.5" enable-background="new 0 0 185.5 185.5" xml:space="preserve">
<g>
	<path fill="#FFFFFF" d="M92.7,0C41.6,0,0,41.6,0,92.7c0,51.1,41.6,92.7,92.7,92.7c51.1,0,92.7-41.6,92.7-92.7
		C185.5,41.6,143.9,0,92.7,0z M92.7,178.8c-47.5,0-86.1-38.6-86.1-86.1c0-47.5,38.6-86.1,86.1-86.1c47.5,0,86.1,38.6,86.1,86.1
		C178.8,140.2,140.2,178.8,92.7,178.8z"/>
	<path fill="#FFFFFF" d="M66.3,71.1h-3.9c-0.7,0-1,0.8-1,1.4v28.6h-0.3L35.5,71.8c-0.8-0.9-1.2-0.6-1.8-0.6h-0.5
		c-0.6,0-0.8,0.1-0.8,0.7v41c0,0.6,0.2,1.2,0.8,1.2H37c0.7,0,1.4-0.6,1.4-1.2V83.1h-0.1L63.9,114c0.7,0.9,1.2,1.1,1.8,1.1h0.6
		c0.6,0,1.1-1,1.1-1.6v-41C67.4,72,66.9,71.1,66.3,71.1z"/>
	<path fill="#FFFFFF" d="M107.6,71.1H83.2c-0.7,0-0.8,0.8-0.8,1.4v40.3c0,0.6,0.2,1.2,0.8,1.2h4c0.6,0,1.2-0.6,1.2-1.2V97.1h16.3
		c0.6,0,0.7-0.8,0.7-1.4v-3.4c0-0.6-0.1-1.2-0.7-1.2H88.4v-14h19.2c0.7,0,0.8-0.6,0.8-1.2v-3.4C108.4,72,108.3,71.1,107.6,71.1z"/>
	<path fill="#FFFFFF" d="M152.4,94.1h-11.2c-0.7,0-0.8,0.1-0.8,0.8v3.5c0,0.6,0.2,0.7,0.8,0.7h6.2v7.3c-1,0.2-4.2,2.1-9.2,2.1
		c-8.6,0-15.4-7.3-15.4-15.8c0-8.5,6.7-15.9,15.3-15.9c3.7,0,7.5,1.6,10.3,4.2c0.6,0.5,1.1,0.6,1.6,0.1c0.9-1,1.8-1.9,2.7-2.9
		c0.5-0.5,0.4-1.2,0-1.7c-4.1-3.5-9-5.7-14.8-5.7c-12.1,0-22,9.8-22,22c0,12.2,9.8,21.9,22,21.9c8.8,0,15.1-4,15.1-4
		c0.3-0.2,0.4-0.7,0.4-1V94.9C153.4,94.3,153,94.1,152.4,94.1z"/>
</g>
</svg>
